<svg version="1.2" xmlns="http://www.w3.org/2000/svg" viewBox="0 0 16 20" width="16" height="20"><style>.a{fill:#ffb700}</style><path fill-rule="evenodd" class="a" d="m16 17q0 0.6-0.2 1.1-0.3 0.6-0.7 1-0.4 0.4-1 0.7-0.5 0.2-1.1 0.2h-10q-0.6 0-1.1-0.2-0.6-0.3-1-0.7-0.4-0.4-0.7-1-0.2-0.5-0.2-1.1v-14q0-0.6 0.2-1.1 0.3-0.6 0.7-1 0.4-0.4 1-0.7 0.5-0.2 1.1-0.2h6.1l0.3 0.1h0.1q0 0 0 0 0.1 0.1 0.1 0.1 0.1 0 0.1 0 0 0.1 0.1 0.1l5.9 6q0.1 0 0.1 0.1 0 0 0.1 0 0 0.1 0 0.1 0 0 0 0.1v0.1q0.1 0 0.1 0 0 0.1 0 0.1 0 0 0 0.1 0 0 0 0zm-2-9h-5q-0.2 0-0.4 0-0.2-0.1-0.3-0.3-0.1-0.1-0.2-0.3-0.1-0.2-0.1-0.4v-5h-5q-0.2 0-0.4 0.1-0.2 0.1-0.3 0.2-0.1 0.2-0.2 0.4-0.1 0.1-0.1 0.3v14q0 0.2 0.1 0.4 0.1 0.2 0.2 0.3 0.1 0.2 0.3 0.3 0.2 0 0.4 0h10q0.2 0 0.4 0 0.2-0.1 0.3-0.3 0.1-0.1 0.2-0.3 0.1-0.2 0.1-0.4zm-4-2h2.6l-2.6-2.6z"/></svg>