<svg version="1.2" xmlns="http://www.w3.org/2000/svg" viewBox="0 0 42 37" width="42" height="37"><style>.a{fill:#ffb700}</style><path class="a" d="m39.8 0h-13c-1.2 0-2.2 1-2.2 2.1v13.1c0 1.2 1 2.2 2.2 2.2h6.2q-0.1 5.1-2.4 8.2-1.8 2.4-5.4 4c-1.1 0.5-1.6 1.8-1 2.9l1.5 3.3c0.5 1 1.8 1.5 2.8 1q4.3-1.8 7.2-4.7 3.6-3.4 5-7.8 1.3-4.3 1.3-11.9v-10.3c0-1.1-1-2.1-2.2-2.1zm-35.2 36.8q4.2-1.8 7.2-4.7 3.6-3.4 4.9-7.7 1.3-4.4 1.3-12v-10.3c0-1.1-0.9-2.1-2.1-2.1h-13.1c-1.2 0-2.2 1-2.2 2.1v13.1c0 1.2 1 2.2 2.2 2.2h6.3q-0.2 5.1-2.4 8.2-1.8 2.4-5.4 4c-1.1 0.5-1.6 1.8-1.1 2.9l1.6 3.3c0.5 1 1.7 1.5 2.8 1z"/></svg>