<svg version="1.2" xmlns="http://www.w3.org/2000/svg" width="42" height="37"><path d="M39.8 0h-13c-1.2 0-2.2 1-2.2 2.1v13.1c0 1.2 1 2.2 2.2 2.2H33q-.1 5.1-2.4 8.2-1.8 2.4-5.4 4c-1.1.5-1.6 1.8-1 2.9l1.5 3.3c.5 1 1.8 1.5 2.8 1q4.3-1.8 7.2-4.7 3.6-3.4 5-7.8Q42 20 42 12.4V2.1C42 1 41 0 39.8 0zM4.6 36.8q4.2-1.8 7.2-4.7 3.6-3.4 4.9-7.7Q18 20 18 12.4V2.1C18 1 17.1 0 15.9 0H2.8C1.6 0 .6 1 .6 2.1v13.1c0 1.2 1 2.2 2.2 2.2h6.3q-.2 5.1-2.4 8.2-1.8 2.4-5.4 4c-1.1.5-1.6 1.8-1.1 2.9l1.6 3.3c.5 1 1.7 1.5 2.8 1z" style="fill:#ffb700"/></svg>